The Hangover 2009  MPEG-4 (IPONE)(NL SUBS) 2Lions-Team



Verenigde Staten / Duitsland
Komedie
99 minuten / 108 minuten (unrated version)

geregisseerd door Todd Phillips
met Bradley Cooper, Ed Helms en Zach Galifianakis

Nederlands:
Twee dagen voor zijn huwelijk, gaat Doug met drie vrienden naar Las Vegas, 
om daar een knallend vrijgezellenfeest te houden. Ze feesten er op los, 
maar als ze de volgende morgen wakker worden weten ze niks meer van de vorige avond. 
Om één of andere reden vinden ze een tijger in de douche en zitten ze opgescheept met een zes maanden oude baby. 
Doug is echter nergens te bekennen. 
Een race tegen de klok volgt om Doug toch nog op tijd voor het altaar te laten verschijnen.

Engels:
Angelenos Doug Billings and Tracy Garner are about to get married. 
Two days before the wedding, the four men in the wedding party - Doug, 
Doug's two best buddies Phil Wenneck and Stu Price, and Tracy's brother 
Alan Garner - hop into Tracy's father's beloved Mercedes convertible for a 24-hour stag party to Las Vegas. 
Phil, a married high school teacher, has the same maturity level as his students when he's with his pals. 
Stu, a dentist, is worried about everything, especially what his controlling girlfriend Melissa thinks. 
Because she disapproves of traditional male bonding rituals, Stu has to lie to her about the stag, 
he telling her that they are going on a wine tasting tour in the Napa Valley. 
Regardless, he intends on eventually marrying her, against the advice and wishes of his friends. 
And Alan seems to be unaware of what are considered the social graces of the western world. 
The morning after their arrival in Las Vegas, they awaken in their hotel suite each with the worst hangover. 
None remembers what happened in the past twelve or so hours. The suite is in shambles. 
And certain things are in the suite that shouldn't be, 
and certain things that should be in the suite are missing. 
Probably the most important in the latter category is Doug. 
As Phil, Stu and Alan try to find Doug using only what little pieces of information they have at hand, 
they go on a journey of discovery of how certain things got into the suite and what happened to the missing items. 
However they are on a race for time as if they can't find Doug in the next few hours, 
they are going to have to explain to Tracy why they are not yet back in Los Angeles. 
And even worse, they may not find Doug at all before the wedding.


Genre: Komedie
Source: The.Hangover.DVDR-DEViSE
Audio: Engelse Dolby Digital 5.1
Subs & Nederlandse custom custom by ~ Just4fun-Team vertaalcrew ~ (hardcoded)

Format                           : MPEG-4
Format profile                   : Base Media
Codec ID                         : isom
File size                        : 1.09 GiB
Duration                         : 1h 35mn
Overall bit rate                 : 1 630 Kbps

Video
ID                               : 1
Format                           : MPEG-4 Visual
Format profile                   : Simple@L1
Format settings, BVOP            : No
Format settings, QPel            : No
Format settings, GMC             : No warppoints
Format settings, Matrix          : Default (H.263)
Codec ID                         : 20
Duration                         : 1h 35mn
Bit rate mode                    : Variable
Bit rate                         : 1 497 Kbps
Width                            : 720 pixels
Height                           : 406 pixels
Display aspect ratio             : 16/9
Frame rate mode                  : Constant
Frame rate                       : 25.000 fps
Resolution                       : 24 bits
Colorimetry                      : 4:2:0
Scan type                        : Progressive
Bits/(Pixel*Frame)               : 0.205
Stream size                      : 1.00 GiB (92%)
Writing library                  : Lavc51.40.4


Audio
ID                               : 2
Format                           : AAC
Format/Info                      : Advanced Audio Codec
Format version                   : Version 4
Format profile                   : LC
Format settings, SBR             : No
Codec ID                         : 40
Duration                         : 1h 35mn
Bit rate mode                    : Variable
Bit rate                         : 128 Kbps
Channel(s)                       : 2 channels
Channel positions                : L R
Sampling rate                    : 48.0 KHz
Resolution                       : 16 bits
Stream size                      : 87.4 MiB (8%)

 
http://www.moviemeter.nl/film/54691 
http://www.imdb.com/title/tt1119646

***************************************** 

Brought to you by 
2Lions Team 



meer zien?? 
Kom dan eens kijken op ons forum 
         
http://www.2lions.ons-forum.nl 
2Lions-Team for all your Dutch MOVIES and more 

*****************************************

DON T HIT AND RUN Niet gelijk afhaken als de film binnen is blijf seeden.